mtllib materials.mtl
v 0.03270211 -0.267917 0.04227453
v 0.05201257 0.2764193 0.1649935
v 0.1989574 0.2570008 0.2676314
v 0.1668402 0.5848855 0.1884745
v 0.2915102 0.2766136 0.1219975
v 0.1589152 0.2752472 0.01025541
v -0.01892956 -0.2937529 -0.06711257
v -0.03730202 0.2549518 -0.1687017
v 0.131802 0.2800754 -0.1114563
v 0.04060941 0.549327 -0.2958288
v 0.1820246 0.2419409 -0.273269
v 0.02701458 0.1943585 -0.3347295
v -0.07034019 -0.2882988 0.03950033
v -0.09717121 0.2640387 0.1165609
v -0.2209888 0.2848791 -0.01281946
v -0.222872 0.5620168 0.1821083
v -0.3401036 0.2522655 0.1092785
v -0.2308842 0.208968 0.2368168
vn -0.5793734 -0.1596408 0.7992755
vn -0.553842 0.1437405 0.8201206
vn 0.7845265 -0.4372491 0.4396948
vn 0.5907301 0.3910915 -0.7057517
vn -0.7755786 0.3296893 -0.5383148
vn 0.8118849 0.2109474 0.5443751
vn 0.6336519 -0.1914254 -0.749561
vn -0.8121791 0.155577 -0.562282
vn -0.3377929 0.1604012 0.9274521
vn -0.3456821 0.447639 0.8246959
vn 0.9172255 -0.2150187 0.3353573
vn 0.3432938 0.08931518 -0.9349718
vn -0.9198463 0.07737394 -0.3845726
vn 0.8892207 0.422048 0.1765275
vn 0.4458178 -0.4622349 -0.7665413
vn -0.9393889 -0.09257325 -0.3301193
vn 0.7267221 0.1294244 -0.674629
vn 0.6883914 0.4204156 -0.5910737
vn -0.662401 -0.238911 -0.7100328
vn -0.7334843 0.1203102 0.6689741
vn 0.6412771 0.1032674 0.7603286
vn -0.7063829 0.4040009 -0.5812111
vn -0.7507656 -0.4384409 0.4940856
vn 0.6825553 -0.06836021 0.7276299
vt 0.06464624 0.04145768
vt 0.1076961 0.07701129
vt 0.09690053 0.09145082
vt 0.08202107 0.0959161
vt 0.09666647 0.1254862
vt 0.0680615 0.1073255
vt 0.1090418 0.06963892
vt 0.09880884 0.08367048
vt 0.05866541 0.03798662
vt -0.1160841 0.03359911
vt -0.1129962 0.05066255
vt -0.1468908 0.05170866
vt -0.101196 0.07590078
vt -0.1357697 0.08493769
vt -0.1128838 0.06116548
vt 0.1185318 0.02563093
vt 0.1476566 0.04294578
vt 0.1137516 0.04232669
vt -0.04202126 0.05861793
vt -0.05721951 0.1175036
vt -0.07067404 0.1065642
vt -0.1089434 0.07136871
vt -0.1196594 0.05591231
vt -0.06910108 0.03222264
vt 0.06306203 0.03502169
vt 0.1109027 0.06380741
vt 0.1023647 0.07968655
vt 0.0933439 0.07090398
vt 0.1152809 0.09555455
vt 0.08289444 0.08559591
vt 0.08805929 0.0933484
vt 0.07343588 0.1027161
vt 0.05258313 0.04558758
vt -0.1119612 0.04401297
vt -0.1082953 0.06096162
vt -0.1421347 0.06315893
vt -0.08140407 0.09141558
vt -0.1113396 0.1109315
vt -0.09715509 0.08113748
vt 0.1150938 0.01911407
vt 0.1425221 0.03900732
vt 0.1088141 0.03530558
vt -0.04632416 0.04237736
vt -0.07971854 0.09320377
vt -0.08892115 0.07850657
vt -0.09169794 0.0846661
vt -0.106337 0.07285794
vt -0.06450854 0.03587511
vt -0.05794283 0.04849612
vt -0.09717442 0.08822308
vt -0.1105996 0.07618942
vt -0.1270666 0.01517917
vt -0.1600648 0.0151474
vt -0.1310782 -0.002397825
vt -0.131605 0.02361972
vt -0.134739 0.006538241
vt -0.07396825 0.008866497
vt 0.06346887 0.09857981
vt 0.07984925 0.09288957
vt 0.08612593 0.1262143
vt 0.1295651 0.0113325
vt 0.1600602 0.02996192
vt 0.127062 0.02997301
vt -0.1041992 0.0475615
vt -0.1375634 0.0534678
vt -0.1114818 0.03179564
vt 0.074578 0.000298233
vt 0.1346139 -0.009407267
vt 0.129992 0.007306019
vt 0.1293662 0.01993607
vt 0.1256509 0.03837328
vt 0.07353345 0.0183452
o group82444185
g mesh82444185
usemtl mat13
f 3/3/1 2/2/1 1/1/1
f 3/6/2 4/5/2 2/4/2
f 4/12/4 5/11/4 6/10/4
f 2/15/5 4/14/5 6/13/5
f 5/18/6 4/17/6 3/16/6
f 6/21/7 5/20/7 1/19/7
usemtl mat23
f 1/9/3 5/8/3 3/7/3
usemtl mat8
f 1/24/8 2/23/8 6/22/8
o group525770070
g mesh525770070
usemtl mat8
f 9/27/9 8/26/9 7/25/9
usemtl mat13
f 9/30/10 10/29/10 8/28/10
f 7/33/11 11/32/11 9/31/11
f 10/36/12 11/35/12 12/34/12
f 8/39/13 10/38/13 12/37/13
f 11/42/14 10/41/14 9/40/14
f 7/48/16 8/47/16 12/46/16
usemtl mat23
f 12/45/15 11/44/15 7/43/15
o group1252978325
g mesh1252978325
usemtl mat8
f 15/51/17 14/50/17 13/49/17
usemtl mat13
f 15/54/18 16/53/18 14/52/18
f 13/57/19 17/56/19 15/55/19
f 16/60/20 17/59/20 18/58/20
f 14/63/21 16/62/21 18/61/21
f 17/66/22 16/65/22 15/64/22
f 13/72/24 14/71/24 18/70/24
usemtl mat23
f 18/69/23 17/68/23 13/67/23
