mtllib materials.mtl
v -0.02250859 -0.2576385 0.004272043
v 0.2048405 0.02994072 -0.1347106
v -0.1000212 0.1390603 -0.07967421
v 0.2168583 0.1986661 0.001879189
v 0.07462433 0.2575779 0.03397357
v -0.08907878 0.04844522 0.2366465
v 0.1841221 -0.07834172 0.2027204
v 0.07629573 0.211726 0.1832457
v 0.2071812 0.1505034 0.1670582
v 0.2069547 0.1482544 0.1674087
v 0.07712785 0.2125475 0.182977
v 0.153727 0.1990733 0.09909721
v 0.1271199 0.1417061 -0.1291611
v 0.03487996 0.07061863 -0.07522184
v 0.006935403 0.08158541 -0.1037921
v -0.01892963 0.01772368 -0.06747896
v 0.0206642 0.05116916 -0.1256994
v 0.05152483 0.04143238 -0.1024272
v -0.09996936 0.1588113 0.1392913
v -0.07203628 0.07115388 0.0498095
v -0.09936158 0.04397118 0.06503651
v -0.081415 0.02254879 -0.007661323
v -0.126663 0.0619334 0.04211179
v -0.1039403 0.09219933 0.02960438
vn -0.2573492 -0.2479244 -0.9339727
vn 0.08280934 0.6234742 -0.7774462
vn -0.9802969 -0.1962656 -0.02231224
vn 0.182851 0.1333672 0.9740528
vn 0.9949628 -0.09551154 0.03044087
vn -0.6447873 0.7286122 0.2310275
vn -0.1930599 -0.6195883 0.7608142
vn 0.7326862 -0.6598219 -0.1667514
vn 0.1828546 0.1333572 0.9740534
vn 0.9949647 -0.09549048 0.03044331
vn 0.430893 0.8657975 0.254413
vn 0.4197393 0.8668858 0.2689387
vn 0.4414082 0.8571581 0.265403
vn 0.430298 0.8595138 0.2758255
vn -0.2709588 0.7797999 0.5643523
vn -0.4655195 0.5723817 0.6750339
vn -0.3835166 0.4194906 -0.8227653
vn 0.06881647 -0.8845496 -0.4613419
vn 0.512332 -0.4107947 0.7541643
vn -0.8326908 0.02264911 -0.5532749
vn 0.4093674 -0.5102642 -0.7563392
vn 0.6413314 -0.2946127 0.7084472
vn 0.7091131 -0.3801989 0.5938076
vn 0.7514309 -0.55916 0.3502737
vn -0.7282987 -0.3747931 0.573682
vn -0.650528 0.1838792 -0.7368865
vn 0.6743566 0.5058821 -0.5378906
vn -0.597663 -0.7969794 0.08730901
vn -0.819985 0.5019245 -0.2751295
vn 0.6680338 0.6250564 -0.4037762
vt -0.1391901 0.05011823
vt -0.1549907 0.08599853
vt -0.1784184 0.06297872
vt -0.1303028 0.0204317
vt -0.151474 0.02537892
vt -0.1604497 0.01246584
vt -0.147376 -0.007626696
vt -0.146567 0.1234942
vt -0.1586849 0.09288292
vt -0.1196895 0.09215973
vt 0.1468449 0.07456066
vt 0.1704796 0.05558572
vt 0.1776214 0.07833664
vt 0.1662555 0.08740459
vt 0.1660647 0.08727837
vt 0.1092859 0.1302376
vt 0.1187404 0.1512555
vt 0.1076448 0.1645702
vt 0.08696978 0.1578443
vt 0.01524921 0.1169891
vt -0.001323488 0.134309
vt -0.01544147 0.1277483
vt -0.01543882 0.1276284
vt -0.0149111 0.1037887
vt 0.1214941 -0.0108745
vt 0.1604942 -0.01047977
vt 0.1436042 0.01468713
vt 0.03586554 0.1243303
vt 0.005334138 0.1424403
vt 0.009300699 0.1034362
vt 0.1776219 0.07833655
vt 0.1776579 0.07845102
vt 0.166256 0.0874045
vt 0.1187433 0.1512535
vt 0.1188371 0.1514621
vt 0.1076479 0.1645685
vt 0.09372075 -0.04492458
vt 0.08231255 -0.04191389
vt 0.08054405 -0.05321523
vt 0.08725952 -0.02760371
vt 0.08328234 -0.03849191
vt 0.09470247 -0.04145702
vt 0.08434314 -0.0524094
vt 0.08593988 -0.04108252
vt 0.07603826 -0.04052678
vt 0.07621561 -0.03781198
vt 0.08611764 -0.03836035
vt 0.08996756 -0.02742651
vt 0.08635472 0.09549064
vt 0.08371614 0.08293083
vt 0.0877259 0.08188388
vt 0.0954456 0.1180129
vt 0.09508201 0.1104365
vt 0.09943598 0.1168943
vt -0.1493353 0.06275699
vt -0.1453805 0.06330042
vt -0.1502567 0.07640158
vt -0.08013885 0.04678402
vt -0.08381912 0.04525321
vt -0.07979582 0.03857698
vt 0.140248 0.07654716
vt 0.1417246 0.06846677
vt 0.1444533 0.07554401
vt -0.1569521 0.09715625
vt -0.1537901 0.09003859
vt -0.1530115 0.09779441
vt -0.1149131 0.1254848
vt -0.1150907 0.1115068
vt -0.1114469 0.1131225
vt 0.1438662 0.08908421
vt 0.1480663 0.08805974
vt 0.1489794 0.1008612
vt 0.1563762 0.08257214
vt 0.1436208 0.08398999
vt 0.1429645 0.0798981
vt 0.1052249 0.09855162
vt 0.09773109 0.09737834
vt 0.1049348 0.09441759
vt 0.1729232 0.03495505
vt 0.1756635 0.03205218
vt 0.1834927 0.04363326
vt -0.1662442 0.0728403
vt -0.164828 0.0691144
vt -0.1580304 0.07292914
vt -0.1638421 -0.04893055
vt -0.1556329 -0.04864452
vt -0.1622382 -0.04491586
vt -0.04415961 -0.1202646
vt -0.04930211 -0.1144153
vt -0.04773007 -0.1220499
vt -0.1127627 0.1126802
vt -0.09929871 0.1089201
vt -0.09992487 0.1128566
vt -0.09277435 -0.1289186
vt -0.09369431 -0.1246944
vt -0.1056009 -0.1294843
o group1651384350
g mesh1651384350
usemtl mat14
f 3/3/1 2/2/1 1/1/1
f 3/7/2 5/6/2 4/5/2 2/4/2
f 1/10/3 6/9/3 3/8/3
f 10/15/4 9/14/4 8/13/4 6/12/4 7/11/4
f 2/19/5 4/18/5 10/17/5 7/16/5
f 6/24/6 8/23/6 11/22/6 5/21/6 3/20/6
f 7/27/7 6/26/7 1/25/7
f 1/30/8 2/29/8 7/28/8
f 9/33/9 11/32/9 8/31/9
f 4/36/10 9/35/10 10/34/10
f 11/39/11 12/38/11 5/37/11
f 5/42/12 12/41/12 4/40/12
f 9/45/13 12/44/13 11/43/13
f 4/48/14 12/47/14 9/46/14
o group1722716413
g mesh1722716413
usemtl mat23
f 15/51/15 14/50/15 13/49/15
f 15/54/16 16/53/16 14/52/16
f 13/57/17 17/56/17 15/55/17
f 16/60/18 17/59/18 18/58/18
f 14/63/19 16/62/19 18/61/19
f 17/66/20 16/65/20 15/64/20
f 18/69/21 17/68/21 13/67/21
f 13/72/22 14/71/22 18/70/22
o group928887132
g mesh928887132
usemtl mat23
f 21/75/23 20/74/23 19/73/23
f 21/78/24 22/77/24 20/76/24
f 19/81/25 23/80/25 21/79/25
f 22/84/26 23/83/26 24/82/26
f 20/87/27 22/86/27 24/85/27
f 23/90/28 22/89/28 21/88/28
f 24/93/29 23/92/29 19/91/29
f 19/96/30 20/95/30 24/94/30
