mtllib materials.mtl
v 0.09882244 -0.08559906 -0.04855061
v 0.106041 0.07526851 -0.050403
v -0.04587445 0.08147418 -0.1034797
v -0.05309302 -0.07939351 -0.1016272
v 0.04587403 -0.08147252 0.1034803
v -0.1060414 -0.07526684 0.05040359
v -0.09882286 0.08560073 0.0485512
v 0.05309258 0.07939517 0.1016278
v 0.07064572 0.02233779 -0.1181548
v 0.1719227 0.01820064 -0.08277041
v 0.176735 0.1254457 -0.08400536
v 0.07545808 0.1295829 -0.1193898
v 0.03534681 0.02508891 -0.01680088
v 0.04015917 0.132334 -0.01803583
v 0.1414361 0.1281968 0.01734853
v 0.1366238 0.02095175 0.01858354
v -0.141436 -0.1281977 -0.01734877
v -0.04015899 -0.1323348 0.01803559
v -0.03534663 -0.02508974 0.01680064
v -0.1366236 -0.02095258 -0.01858377
v -0.1767349 -0.1254466 0.08400512
v -0.1719225 -0.01820147 0.08277017
v -0.07064554 -0.02233863 0.1181545
v -0.0754579 -0.1295837 0.1193895
vn 0.32879 -0.02562466 -0.9440554
vn -0.32879 0.02562466 0.9440554
vn 0.9433388 -0.03853479 0.3295864
vn -0.9433388 0.03853479 -0.3295864
vn -0.04482457 -0.9989287 0.01150292
vn 0.04482457 0.9989287 -0.01150292
vn 0.3287898 -0.02562468 -0.9440554
vn -0.3287898 0.02562468 0.9440554
vn -0.04482452 -0.9989287 0.01150289
vn 0.04482452 0.9989287 -0.01150289
vn -0.9433388 0.03853479 -0.3295862
vn 0.9433388 -0.03853479 0.3295862
vn 0.3287898 -0.02562468 -0.9440554
vn -0.3287898 0.02562468 0.9440554
vn -0.04482452 -0.9989287 0.01150289
vn 0.04482452 0.9989287 -0.01150289
vn -0.9433388 0.03853479 -0.3295862
vn 0.9433388 -0.03853479 0.3295862
vt -0.146054 0.04665652
vt -0.1593703 0.05571277
vt -0.1684266 0.04239648
vt -0.1551103 0.03334022
vt 0.146054 0.04665652
vt 0.1551103 0.03334022
vt 0.1684266 0.04239647
vt 0.1593703 0.05571278
vt 0.07738166 0.1364586
vt 0.08773696 0.1241254
vt 0.1000701 0.1344807
vt 0.08971481 0.1468139
vt -0.07738166 0.1364586
vt -0.08971481 0.1468139
vt -0.1000701 0.1344807
vt -0.08773696 0.1241254
vt -0.06995678 0.000613605
vt -0.08009288 -0.01190035
vt -0.06757893 -0.02203645
vt -0.05744283 -0.009522497
vt 0.06995677 0.0006136039
vt 0.05744283 -0.009522497
vt 0.06757893 -0.02203645
vt 0.08009288 -0.01190034
vt -0.1579502 0.04825519
vt -0.1519127 0.05713271
vt -0.1607902 0.06317022
vt -0.1668277 0.05429269
vt 0.1579502 0.04825519
vt 0.1668277 0.05429269
vt 0.1607902 0.06317022
vt 0.1519127 0.05713272
vt -0.0775068 -0.0001790037
vt -0.06916417 -0.006936401
vt -0.06240677 0.001406233
vt -0.07074941 0.008163632
vt 0.0775068 -0.0001790023
vt 0.07074941 0.008163633
vt 0.06240678 0.001406235
vt 0.06916417 -0.006936402
vt -0.08215187 0.1474731
vt -0.09037398 0.1543767
vt -0.09727753 0.1461546
vt -0.08905542 0.139251
vt 0.08215187 0.1474731
vt 0.08905541 0.139251
vt 0.09727751 0.1461546
vt 0.09037398 0.1543767
vt -0.1536901 0.02588268
vt -0.1476526 0.0347602
vt -0.1565302 0.0407977
vt -0.1625677 0.03192018
vt 0.1536901 0.02588268
vt 0.1625677 0.03192018
vt 0.1565302 0.0407977
vt 0.1476526 0.03476021
vt -0.07512899 -0.02282896
vt -0.06678636 -0.02958636
vt -0.06002896 -0.02124373
vt -0.06837159 -0.01448633
vt 0.07512899 -0.02282896
vt 0.06837159 -0.01448633
vt 0.06002896 -0.02124372
vt 0.06678636 -0.02958636
vt -0.08017396 0.1247847
vt -0.08839607 0.1316883
vt -0.09529962 0.1234661
vt -0.08707751 0.1165626
vt 0.08017395 0.1247847
vt 0.08707751 0.1165626
vt 0.09529961 0.1234661
vt 0.08839606 0.1316883
o group918308616
g mesh918308616
usemtl mat21
f 4/4/1 3/3/1 2/2/1 1/1/1
f 8/8/2 7/7/2 6/6/2 5/5/2
f 2/12/3 8/11/3 5/10/3 1/9/3
f 6/16/4 7/15/4 3/14/4 4/13/4
f 5/20/5 6/19/5 4/18/5 1/17/5
f 3/24/6 7/23/6 8/22/6 2/21/6
o group1027800464
g mesh1027800464
usemtl mat12
f 12/28/7 11/27/7 10/26/7 9/25/7
f 16/32/8 15/31/8 14/30/8 13/29/8
f 10/36/9 16/35/9 13/34/9 9/33/9
f 14/40/10 15/39/10 11/38/10 12/37/10
f 13/44/11 14/43/11 12/42/11 9/41/11
f 11/48/12 15/47/12 16/46/12 10/45/12
o group627898140
g mesh627898140
usemtl mat12
f 20/52/13 19/51/13 18/50/13 17/49/13
f 24/56/14 23/55/14 22/54/14 21/53/14
f 18/60/15 24/59/15 21/58/15 17/57/15
f 22/64/16 23/63/16 19/62/16 20/61/16
f 21/68/17 22/67/17 20/66/17 17/65/17
f 19/72/18 23/71/18 24/70/18 18/69/18
