mtllib materials.mtl
v 0.002631545 -0.1527516 -0.1882648
v 0.1039085 -0.1568887 -0.1528803
v 0.1087208 -0.04964364 -0.1541153
v 0.007443905 -0.04550648 -0.1894997
v -0.03266734 -0.1500005 -0.08691084
v -0.02785498 -0.04275537 -0.08814579
v 0.07342196 -0.04689252 -0.05276144
v 0.0686096 -0.1541376 -0.05152643
v 0.007444322 -0.0455054 -0.1895001
v 0.1087213 -0.04964244 -0.1541157
v 0.1135337 0.05760264 -0.1553506
v 0.01225668 0.06173968 -0.190735
v -0.1866997 -0.03037453 0.3679463
v -0.1818873 0.07687056 0.3667114
v -0.08061033 0.07273352 0.4020958
v -0.08542269 -0.03451157 0.4033307
v 0.06870729 -0.09845734 0.1175788
v 0.07351965 0.008787751 0.1163439
v -0.1290343 0.01706195 0.04557496
v -0.1338466 -0.09018314 0.04680991
v -0.01954007 -0.09157968 0.3709635
v -0.222094 -0.08330548 0.3001946
v -0.2172816 0.02393961 0.2989597
v -0.01472771 0.01566541 0.3697286
v 0.07813877 0.004671454 -0.223102
v 0.08295113 0.1119165 -0.224337
v -0.01832581 0.1160537 -0.2597214
v -0.02313817 0.008808613 -0.2584865
v 0.04283977 0.007422566 -0.1217481
v -0.05843717 0.01155972 -0.1571326
v -0.05362481 0.1188048 -0.1583675
v 0.04765213 0.1146677 -0.1229831
v 0.02519119 0.008798599 -0.07107091
v 0.1264681 0.004661441 -0.03568655
v 0.1312805 0.1119065 -0.0369215
v 0.03000355 0.1160437 -0.07230592
v -0.0101077 0.01154971 0.03028297
v -0.005295336 0.1187948 0.02904803
v 0.0959816 0.1146576 0.06443238
v 0.09116924 0.007412553 0.06566739
vn 0.3287898 -0.02562468 -0.9440554
vn -0.3287898 0.02562468 0.9440554
vn -0.04482452 -0.9989287 0.01150289
vn 0.04482452 0.9989287 -0.01150289
vn -0.9433388 0.03853479 -0.3295862
vn 0.9433388 -0.03853479 0.3295862
vn 0.3287898 -0.02562464 -0.9440554
vn -0.3287898 0.02562464 0.9440554
vn -0.0448245 -0.9989287 0.0115029
vn 0.0448245 0.9989287 -0.0115029
vn -0.9433388 0.03853479 -0.3295862
vn 0.9433388 -0.03853479 0.3295862
vn 0.3287901 -0.02562466 -0.9440554
vn -0.3287901 0.02562466 0.9440554
vn 0.9433387 -0.03853481 0.3295864
vn -0.9433387 0.03853481 -0.3295864
vn -0.04482457 -0.9989287 0.01150292
vn 0.04482457 0.9989287 -0.01150292
vn 0.3287906 -0.02562469 -0.9440551
vn -0.3287906 0.02562469 0.9440551
vn 0.9433385 -0.03853481 0.3295869
vn -0.9433385 0.03853481 -0.3295869
vn -0.04482448 -0.9989287 0.01150285
vn 0.04482448 0.9989287 -0.01150285
vn 0.3287898 -0.02562468 -0.9440554
vn -0.3287898 0.02562468 0.9440554
vn -0.04482452 -0.9989287 0.01150289
vn 0.04482452 0.9989287 -0.01150289
vn -0.9433388 0.03853479 -0.3295862
vn 0.9433388 -0.03853479 0.3295862
vt -0.1565303 0.04079762
vt -0.1504928 0.04967515
vt -0.1593703 0.05571265
vt -0.1654078 0.04683512
vt 0.1565303 0.04079763
vt 0.1654078 0.04683513
vt 0.1593703 0.05571265
vt 0.1504928 0.04967516
vt 0.01505475 -0.08206049
vt 0.02339738 -0.08881788
vt 0.03015478 -0.08047526
vt 0.02181214 -0.07371785
vt -0.01505475 -0.08206049
vt -0.02181214 -0.07371785
vt -0.03015477 -0.08047526
vt -0.02339738 -0.08881788
vt -0.1574316 0.04946712
vt -0.1656537 0.05637066
vt -0.1725573 0.04814856
vt -0.1643351 0.04124502
vt 0.1574316 0.04946712
vt 0.1643351 0.04124501
vt 0.1725572 0.04814856
vt 0.1656537 0.05637066
vt -0.1654079 0.04683521
vt -0.1593704 0.05571275
vt -0.1682479 0.06175024
vt -0.1742854 0.05287271
vt 0.1654079 0.04683521
vt 0.1742854 0.05287271
vt 0.1682479 0.06175024
vt 0.1593704 0.05571275
vt 0.01505473 -0.08206044
vt 0.0609392 -0.1192261
vt 0.06769661 -0.1108835
vt 0.02181212 -0.0737178
vt -0.01505473 -0.08206044
vt -0.02181212 -0.0737178
vt -0.06769661 -0.1108835
vt -0.0609392 -0.1192261
vt -0.1656538 0.05637077
vt -0.1738759 0.06327431
vt -0.2118454 0.01805272
vt -0.2036233 0.01114917
vt 0.1656538 0.05637078
vt 0.2036233 0.01114918
vt 0.2118454 0.01805272
vt 0.1738759 0.06327432
vt -0.1519127 0.05713279
vt -0.1607902 0.06317028
vt -0.1728652 0.04541522
vt -0.1639877 0.03937772
vt 0.1519127 0.05713279
vt 0.1639877 0.03937772
vt 0.1728652 0.04541522
vt 0.1607902 0.06317028
vt 0.1788014 0.03236365
vt 0.1960603 0.01180838
vt 0.2042824 0.01871192
vt 0.1870236 0.03926719
vt -0.1788014 0.03236365
vt -0.1870236 0.03926719
vt -0.2042824 0.01871192
vt -0.1960603 0.01180838
vt 0.04604744 -0.08643989
vt 0.03253264 -0.1031252
vt 0.05338922 -0.1200187
vt 0.06690402 -0.1033334
vt -0.04604744 -0.08643989
vt -0.06690402 -0.1033334
vt -0.05338922 -0.1200187
vt -0.03253264 -0.1031252
vt -0.1668277 0.05429276
vt -0.1757053 0.06033025
vt -0.1817428 0.05145273
vt -0.1728652 0.04541523
vt 0.1668277 0.05429276
vt 0.1728652 0.04541523
vt 0.1817428 0.05145273
vt 0.1757053 0.06033026
vt 0.166313 0.06393337
vt 0.1732165 0.05571126
vt 0.1814387 0.0626148
vt 0.1745351 0.07083691
vt -0.166313 0.06393337
vt -0.1745351 0.07083692
vt -0.1814387 0.0626148
vt -0.1732165 0.05571126
vt 0.01426214 -0.07451039
vt 0.007504737 -0.08285302
vt 0.01584737 -0.08961043
vt 0.02260477 -0.0812678
vt -0.01426214 -0.07451039
vt -0.02260477 -0.0812678
vt -0.01584737 -0.08961043
vt -0.007504736 -0.08285302
vt -0.1668278 0.05429277
vt -0.1607903 0.06317029
vt -0.1696678 0.06920779
vt -0.1757053 0.06033026
vt 0.1668278 0.05429278
vt 0.1757053 0.06033027
vt 0.1696678 0.06920779
vt 0.1607903 0.0631703
vt 0.02677615 -0.08464643
vt 0.03511878 -0.09140383
vt 0.04187617 -0.0830612
vt 0.03353354 -0.07630379
vt -0.02677614 -0.08464643
vt -0.03353354 -0.07630379
vt -0.04187617 -0.0830612
vt -0.03511878 -0.09140383
vt -0.1766683 0.05160036
vt -0.1848904 0.0585039
vt -0.1917939 0.05028179
vt -0.1835718 0.04337825
vt 0.1766683 0.05160036
vt 0.1835718 0.04337825
vt 0.1917939 0.05028179
vt 0.1848904 0.0585039
o group1622888549
g mesh1622888549
usemtl mat21
f 4/4/1 3/3/1 2/2/1 1/1/1
f 8/8/2 7/7/2 6/6/2 5/5/2
f 2/12/3 8/11/3 5/10/3 1/9/3
f 6/16/4 7/15/4 3/14/4 4/13/4
f 5/20/5 6/19/5 4/18/5 1/17/5
f 3/24/6 7/23/6 8/22/6 2/21/6
o group97345878
g mesh97345878
usemtl mat21
f 12/28/7 11/27/7 10/26/7 9/25/7
f 16/32/8 15/31/8 14/30/8 13/29/8
f 10/36/9 16/35/9 13/34/9 9/33/9
f 14/40/10 15/39/10 11/38/10 12/37/10
f 13/44/11 14/43/11 12/42/11 9/41/11
f 11/48/12 15/47/12 16/46/12 10/45/12
o group1155236447
g mesh1155236447
usemtl mat12
f 20/52/13 19/51/13 18/50/13 17/49/13
f 24/56/14 23/55/14 22/54/14 21/53/14
f 18/60/15 24/59/15 21/58/15 17/57/15
f 22/64/16 23/63/16 19/62/16 20/61/16
f 21/68/17 22/67/17 20/66/17 17/65/17
f 19/72/18 23/71/18 24/70/18 18/69/18
o group679196461
g mesh679196461
usemtl mat12
f 28/76/19 27/75/19 26/74/19 25/73/19
f 32/80/20 31/79/20 30/78/20 29/77/20
f 26/84/21 32/83/21 29/82/21 25/81/21
f 30/88/22 31/87/22 27/86/22 28/85/22
f 29/92/23 30/91/23 28/90/23 25/89/23
f 27/96/24 31/95/24 32/94/24 26/93/24
o group1956336289
g mesh1956336289
usemtl mat12
f 36/100/25 35/99/25 34/98/25 33/97/25
f 40/104/26 39/103/26 38/102/26 37/101/26
f 34/108/27 40/107/27 37/106/27 33/105/27
f 38/112/28 39/111/28 35/110/28 36/109/28
f 37/116/29 38/115/29 36/114/29 33/113/29
f 35/120/30 39/119/30 40/118/30 34/117/30
