mtllib materials.mtl
v -0.06457353 -0.1947755 -0.05511034
v 0.03670341 -0.1989126 -0.01972593
v 0.05114055 0.1228227 -0.02343078
v -0.05013645 0.1269598 -0.05881519
v -0.09987247 -0.1920244 0.04624356
v -0.08543533 0.1297109 0.0425387
v 0.0158416 0.1255738 0.07792312
v 0.001404524 -0.1961615 0.08162796
v -0.09756339 -0.1940814 -0.1234792
v 0.1049905 -0.2023556 -0.05271044
v 0.1146153 0.01213461 -0.05518034
v -0.08793867 0.02040881 -0.1259492
v -0.1681612 -0.1885793 0.07922855
v -0.1585365 0.02591091 0.07675865
v 0.04401743 0.01763672 0.1475275
v 0.03439271 -0.1968535 0.1499974
v 0.01574391 0.06989354 -0.09118216
v 0.1170208 0.06575644 -0.05579776
v 0.1218333 0.1730015 -0.05703271
v 0.02055627 0.1771386 -0.09241712
v -0.01955503 0.07264459 0.01017174
v -0.01474261 0.1798897 0.008936778
v 0.08653432 0.1757526 0.04432118
v 0.08172196 0.06850749 0.04555614
vn 0.3287898 -0.02562467 -0.9440554
vn -0.3287898 0.02562467 0.9440554
vn -0.04482446 -0.9989287 0.01150291
vn 0.04482446 0.9989287 -0.01150291
vn -0.9433388 0.03853479 -0.3295862
vn 0.9433388 -0.03853479 0.3295862
vn 0.3287898 -0.02562468 -0.9440554
vn -0.3287898 0.02562468 0.9440554
vn -0.04482452 -0.9989287 0.01150289
vn 0.04482452 0.9989287 -0.01150289
vn -0.9433388 0.03853479 -0.3295862
vn 0.9433388 -0.03853479 0.3295862
vn 0.3287898 -0.02562468 -0.9440554
vn -0.3287898 0.02562468 0.9440554
vn -0.04482452 -0.9989287 0.01150289
vn 0.04482452 0.9989287 -0.01150289
vn -0.9433388 0.03853479 -0.3295862
vn 0.9433388 -0.03853479 0.3295862
vt -0.07823115 -0.02543602
vt -0.07219365 -0.01655849
vt -0.09882624 0.001554014
vt -0.1048637 -0.007323519
vt 0.07823116 -0.02543602
vt 0.1048637 -0.007323518
vt 0.09882624 0.001554013
vt 0.07219365 -0.01655849
vt -0.01673053 -0.07013071
vt -0.008387896 -0.07688811
vt -0.001630499 -0.06854548
vt -0.009973133 -0.06178808
vt 0.01673053 -0.07013071
vt 0.009973129 -0.06178807
vt 0.001630497 -0.06854548
vt 0.008387894 -0.07688811
vt -0.05861086 0.008549892
vt -0.08327719 0.02926052
vt -0.09018073 0.02103841
vt -0.06551441 0.0003277856
vt 0.05861087 0.008549895
vt 0.0655144 0.0003277872
vt 0.09018074 0.02103841
vt 0.08327719 0.02926052
vt -0.08125003 -0.02987479
vt -0.06917503 -0.01211973
vt -0.08693009 -4.472683E-05
vt -0.09900509 -0.01779979
vt 0.08125003 -0.02987479
vt 0.09900509 -0.01779979
vt 0.08693009 -4.472915E-05
vt 0.06917503 -0.01211973
vt -0.02428055 -0.07092343
vt -0.007595286 -0.08443822
vt 0.005919508 -0.06775295
vt -0.01076576 -0.05423816
vt 0.02428055 -0.07092343
vt 0.01076576 -0.05423816
vt -0.005919508 -0.06775295
vt 0.007595286 -0.08443822
vt -0.05515921 0.01266097
vt -0.07160342 0.02646805
vt -0.08541051 0.01002383
vt -0.06896628 -0.003783248
vt 0.05515921 0.01266097
vt 0.06896628 -0.003783246
vt 0.08541051 0.01002383
vt 0.07160342 0.02646805
vt -0.09740632 -0.00590359
vt -0.09136882 0.002973939
vt -0.1002463 0.009011443
vt -0.1062839 0.0001339102
vt 0.09740632 -0.005903593
vt 0.1062838 0.0001339115
vt 0.1002463 0.009011439
vt 0.09136882 0.00297394
vt -0.01752317 -0.06258084
vt -0.009180536 -0.06933825
vt -0.002423139 -0.06099561
vt -0.01076577 -0.05423821
vt 0.01752317 -0.06258084
vt 0.01076577 -0.05423821
vt 0.00242314 -0.06099561
vt 0.009180536 -0.06933824
vt -0.07571444 0.02991976
vt -0.08393654 0.0368233
vt -0.09084009 0.02860119
vt -0.08261798 0.02169765
vt 0.07571444 0.02991976
vt 0.08261798 0.02169765
vt 0.09084009 0.02860119
vt 0.08393654 0.0368233
o group2119075559
g mesh2119075559
usemtl mat21
f 4/4/1 3/3/1 2/2/1 1/1/1
f 8/8/2 7/7/2 6/6/2 5/5/2
f 2/12/3 8/11/3 5/10/3 1/9/3
f 6/16/4 7/15/4 3/14/4 4/13/4
f 5/20/5 6/19/5 4/18/5 1/17/5
f 3/24/6 7/23/6 8/22/6 2/21/6
o group422821371
g mesh422821371
usemtl mat12
f 12/28/7 11/27/7 10/26/7 9/25/7
f 16/32/8 15/31/8 14/30/8 13/29/8
f 10/36/9 16/35/9 13/34/9 9/33/9
f 14/40/10 15/39/10 11/38/10 12/37/10
f 13/44/11 14/43/11 12/42/11 9/41/11
f 11/48/12 15/47/12 16/46/12 10/45/12
o group840768975
g mesh840768975
usemtl mat12
f 20/52/13 19/51/13 18/50/13 17/49/13
f 24/56/14 23/55/14 22/54/14 21/53/14
f 18/60/15 24/59/15 21/58/15 17/57/15
f 22/64/16 23/63/16 19/62/16 20/61/16
f 21/68/17 22/67/17 20/66/17 17/65/17
f 19/72/18 23/71/18 24/70/18 18/69/18
