mtllib materials.mtl
v 0.01489502 0.1186258 -0.01066727
v 0.2174489 0.1103516 0.06010155
v 0.2270737 0.3248417 0.05763164
v 0.02451974 0.3331159 -0.01313717
v -0.05570281 0.1241279 0.1920405
v -0.04607809 0.338618 0.1895706
v 0.1564758 0.3303438 0.2603395
v 0.1468511 0.1158537 0.2628094
v -0.1290907 -0.1467152 -0.2810575
v 0.07346326 -0.1549894 -0.2102887
v 0.08308798 0.05950081 -0.2127586
v -0.1194659 0.06777501 -0.2835274
v -0.1996885 -0.1412131 -0.07834969
v -0.1900638 0.07327712 -0.08081959
v 0.01249015 0.06500292 -0.01005077
v 0.002865434 -0.1494873 -0.007580876
v -0.2269633 -0.354327 -0.02520359
v -0.07504779 -0.3605325 0.02787303
v -0.06782925 -0.199665 0.0260206
v -0.2197447 -0.1934593 -0.02705602
v -0.2799116 -0.3502003 0.1268273
v -0.2726931 -0.1893327 0.1249749
v -0.1207776 -0.1955383 0.1780515
v -0.1279961 -0.356406 0.1799039
v -0.04626924 0.2272558 -0.1486411
v 0.05500773 0.2231187 -0.1132567
v 0.05982009 0.3303638 -0.1144917
v -0.04145688 0.3345009 -0.1498761
v -0.08156818 0.2300069 -0.04728724
v -0.07675582 0.337252 -0.04852219
v 0.02452117 0.3331149 -0.01313778
v 0.01970881 0.2258698 -0.01190283
v 0.2005099 -0.3206868 -0.1046815
v 0.2269778 0.2691609 -0.1114736
v -0.07685316 0.2815721 -0.2176269
v -0.1033213 -0.3082756 -0.2108349
v 0.09461278 -0.3124336 0.1993805
v -0.2092182 -0.3000225 0.09322721
v -0.1827499 0.2898253 0.0864348
v 0.121081 0.277414 0.1925881
v 0.1144757 -0.3715467 -0.1901265
v 0.1192881 -0.2643015 -0.1913615
v 0.01801109 -0.2601645 -0.2267459
v 0.01319873 -0.3674096 -0.2255109
v 0.07917678 -0.3687956 -0.08877259
v -0.02210021 -0.3646586 -0.124157
v -0.01728779 -0.2574134 -0.125392
v 0.08398914 -0.2615505 -0.09000757
v -0.1264924 0.01826751 0.05653631
v -0.12168 0.1255127 0.05530135
v -0.222957 0.1296498 0.01991692
v -0.2277694 0.02240467 0.02115189
v -0.1617913 0.02101862 0.1578902
v -0.2630683 0.02515566 0.1225058
v -0.2582559 0.1324009 0.1212708
v -0.156979 0.1282637 0.1566553
v 0.280829 -0.05601752 -0.1407544
v 0.2880475 0.1048501 -0.1426069
v 0.136132 0.1110557 -0.1956835
v 0.1289135 -0.04981196 -0.1938311
v 0.2278806 -0.05189097 0.01127643
v 0.07596511 -0.04568529 -0.04180022
v 0.08318365 0.1151823 -0.04365265
v 0.2350991 0.1089767 0.009423994
v 0.06643701 -0.2044954 0.1297755
v 0.07606167 0.009994864 0.1273056
v 0.04076275 0.01274586 0.2286595
v 0.03113806 -0.2017443 0.2311294
v 0.167714 -0.2086325 0.16516
v 0.1324151 -0.2058815 0.2665139
v 0.1420397 0.008608818 0.2640439
v 0.1773387 0.005857706 0.16269
vn 0.3287898 -0.02562468 -0.9440555
vn -0.3287898 0.02562468 0.9440555
vn -0.04482453 -0.9989287 0.01150289
vn 0.04482453 0.9989287 -0.01150289
vn -0.9433388 0.03853479 -0.3295862
vn 0.9433388 -0.03853479 0.3295862
vn 0.3287898 -0.02562468 -0.9440555
vn -0.3287898 0.02562468 0.9440555
vn -0.04482453 -0.9989287 0.01150289
vn 0.04482453 0.9989287 -0.01150289
vn -0.9433388 0.03853479 -0.3295862
vn 0.9433388 -0.03853479 0.3295862
vn 0.3287898 -0.02562467 -0.9440555
vn -0.3287898 0.02562467 0.9440555
vn -0.04482451 -0.9989287 0.0115029
vn 0.04482451 0.9989287 -0.0115029
vn -0.9433388 0.03853479 -0.3295861
vn 0.9433388 -0.03853479 0.3295861
vn 0.3287898 -0.02562468 -0.9440555
vn -0.3287898 0.02562468 0.9440555
vn -0.04482453 -0.9989287 0.01150289
vn 0.04482453 0.9989287 -0.01150289
vn -0.9433388 0.03853479 -0.3295862
vn 0.9433388 -0.03853479 0.3295862
vn 0.3287899 -0.02562431 -0.9440554
vn -0.3287899 0.02562501 0.9440554
vn 0.9433386 -0.03853478 0.3295867
vn -0.9433388 0.0385351 -0.3295863
vn -0.04482432 -0.9989287 0.01150318
vn 0.04482454 0.9989287 -0.01150298
vn 0.3287899 -0.02562466 -0.9440554
vn -0.3287899 0.02562466 0.9440554
vn 0.9433388 -0.03853475 0.3295864
vn -0.9433388 0.03853475 -0.3295864
vn -0.04482454 -0.9989287 0.01150297
vn 0.04482454 0.9989287 -0.01150297
vn 0.3287899 -0.02562466 -0.9440554
vn -0.3287899 0.02562466 0.9440554
vn 0.9433388 -0.03853475 0.3295864
vn -0.9433388 0.03853475 -0.3295864
vn -0.04482454 -0.9989287 0.01150297
vn 0.04482454 0.9989287 -0.01150297
vn 0.3287899 -0.02562466 -0.9440554
vn -0.3287899 0.02562466 0.9440554
vn 0.9433387 -0.03853473 0.3295863
vn -0.9433387 0.03853473 -0.3295863
vn -0.04482454 -0.9989287 0.01150298
vn 0.04482454 0.9989287 -0.01150298
vn -0.9433387 0.03853454 -0.3295863
vn 0.9433387 -0.03853454 0.3295863
vn 0.32879 -0.02562452 -0.9440554
vn -0.32879 0.02562452 0.9440554
vn -0.04482431 -0.9989287 0.01150303
vn 0.04482431 0.9989287 -0.01150303
vt -0.1654077 0.04683519
vt -0.1533327 0.06459025
vt -0.1710878 0.07666524
vt -0.1831628 0.05891018
vt 0.1654077 0.04683518
vt 0.1831628 0.05891018
vt 0.1710878 0.07666524
vt 0.1533327 0.06459025
vt -0.02248703 -0.05165213
vt -0.005801765 -0.06516694
vt 0.00771303 -0.04848166
vt -0.008972239 -0.03496686
vt 0.02248703 -0.05165213
vt 0.00897224 -0.03496686
vt -0.00771303 -0.04848166
vt 0.005801766 -0.06516694
vt -0.1345878 0.09337013
vt -0.151032 0.1071772
vt -0.1648391 0.090733
vt -0.1483949 0.07692592
vt 0.1345878 0.09337013
vt 0.1483949 0.07692592
vt 0.1648391 0.090733
vt 0.151032 0.1071772
vt -0.1552889 0.01398644
vt -0.1432139 0.0317415
vt -0.1609689 0.0438165
vt -0.1730439 0.02606144
vt 0.1552888 0.01398644
vt 0.1730439 0.02606144
vt 0.1609689 0.0438165
vt 0.1432139 0.0317415
vt -0.05268715 -0.05482244
vt -0.03600188 -0.06833725
vt -0.02248708 -0.05165197
vt -0.03917235 -0.03813718
vt 0.05268715 -0.05482245
vt 0.03917235 -0.03813718
vt 0.02248708 -0.05165198
vt 0.03600188 -0.06833725
vt -0.1002253 0.0925556
vt -0.1166695 0.1063627
vt -0.1304766 0.08991845
vt -0.1140324 0.07611137
vt 0.1002253 0.0925556
vt 0.1140324 0.07611137
vt 0.1304766 0.08991845
vt 0.1166695 0.1063627
vt -0.1375339 0.001911414
vt -0.1284777 0.01522772
vt -0.141794 0.02428396
vt -0.1508502 0.01096767
vt 0.1375339 0.001911419
vt 0.1508502 0.01096767
vt 0.141794 0.02428397
vt 0.1284777 0.01522772
vt -0.03183065 -0.07171597
vt -0.0193167 -0.08185207
vt -0.0091806 -0.06933811
vt -0.02169455 -0.05920202
vt 0.03183065 -0.07171597
vt 0.02169455 -0.05920202
vt 0.009180599 -0.06933812
vt 0.0193167 -0.08185207
vt -0.10104 0.05819332
vt -0.1133731 0.06854863
vt -0.1237284 0.05621547
vt -0.1113953 0.04586016
vt 0.10104 0.05819333
vt 0.1113953 0.04586016
vt 0.1237285 0.05621548
vt 0.1133731 0.06854863
vt -0.1803226 0.0439952
vt -0.1742851 0.05287273
vt -0.1831627 0.05891023
vt -0.1892002 0.0500327
vt 0.1803226 0.0439952
vt 0.1892002 0.0500327
vt 0.1831627 0.05891023
vt 0.1742851 0.05287273
vt -0.03758707 -0.05323721
vt -0.02924444 -0.05999462
vt -0.02248704 -0.05165197
vt -0.03082968 -0.04489458
vt 0.03758707 -0.05323721
vt 0.03082968 -0.04489458
vt 0.02248704 -0.05165197
vt 0.02924444 -0.05999462
vt -0.1359062 0.1084958
vt -0.1441283 0.1153993
vt -0.1510318 0.1071772
vt -0.1428097 0.1002737
vt 0.1359062 0.1084958
vt 0.1428097 0.1002737
vt 0.1510318 0.1071772
vt 0.1441283 0.1153993
vt -0.1208414 0.03600151
vt -0.1696678 0.06920774
vt -0.1877802 0.04257513
vt -0.1389539 0.009368891
vt 0.1208413 0.03600153
vt 0.1389538 0.009368928
vt 0.1877802 0.0425752
vt 0.1696677 0.06920779
vt 0.09134407 0.07808908
vt 0.1120547 0.05342271
vt 0.1572763 0.09139217
vt 0.1365657 0.1160585
vt -0.091344 0.07808913
vt -0.1365656 0.1160586
vt -0.1572762 0.09139225
vt -0.1120546 0.05342276
vt -0.02486481 -0.02900204
vt -0.04513702 -0.05402996
vt -0.02010908 -0.07430218
vt 0.0001631152 -0.04927427
vt 0.02486483 -0.02900207
vt -0.0001630714 -0.04927426
vt 0.02010913 -0.07430217
vt 0.04513703 -0.05402997
vt -0.1224402 0.02410524
vt -0.1313178 0.03014274
vt -0.1373553 0.02126521
vt -0.1284777 0.01522771
vt 0.1224402 0.02410524
vt 0.1284777 0.0152277
vt 0.1373553 0.02126521
vt 0.1313178 0.03014274
vt 0.08378124 0.07874853
vt 0.09068479 0.07052642
vt 0.09890689 0.07742997
vt 0.09200336 0.08565207
vt -0.08378125 0.07874853
vt -0.09200336 0.08565207
vt -0.0989069 0.07742997
vt -0.09068479 0.07052641
vt -0.03579368 -0.033966
vt -0.04255108 -0.04230863
vt -0.03420844 -0.04906603
vt -0.02745104 -0.04072339
vt 0.03579368 -0.033966
vt 0.02745104 -0.04072339
vt 0.03420844 -0.04906603
vt 0.04255108 -0.04230863
vt -0.1625676 0.03192013
vt -0.1714451 0.03795764
vt -0.1774826 0.0290801
vt -0.1686051 0.0230426
vt 0.1625676 0.03192014
vt 0.1686051 0.0230426
vt 0.1774826 0.02908011
vt 0.1714451 0.03795763
vt 0.133269 0.07824446
vt 0.1401726 0.07002234
vt 0.1483947 0.07692589
vt 0.1414912 0.085148
vt -0.133269 0.07824446
vt -0.1414912 0.08514799
vt -0.1483947 0.07692589
vt -0.1401726 0.07002234
vt -0.02090184 -0.06675206
vt -0.02765923 -0.07509469
vt -0.0193166 -0.08185209
vt -0.0125592 -0.07350945
vt 0.02090183 -0.06675206
vt 0.0125592 -0.07350946
vt 0.0193166 -0.08185209
vt 0.02765923 -0.07509469
vt -0.1400165 0.05553408
vt -0.1533328 0.06459032
vt -0.162389 0.05127402
vt -0.1490727 0.04221778
vt 0.1400165 0.05553408
vt 0.1490727 0.04221778
vt 0.162389 0.05127402
vt 0.1533328 0.06459033
vt 0.1084476 0.09945912
vt 0.1188029 0.08712595
vt 0.131136 0.09748127
vt 0.1207807 0.1098144
vt -0.1084475 0.09945912
vt -0.1207807 0.1098144
vt -0.131136 0.09748126
vt -0.1188029 0.08712595
vt -0.02565753 -0.02145199
vt -0.03579362 -0.03396594
vt -0.02327967 -0.04410204
vt -0.01314357 -0.03158809
vt 0.02565753 -0.02145199
vt 0.01314357 -0.03158809
vt 0.02327967 -0.04410204
vt 0.03579362 -0.03396595
vt -0.116825 0.06443743
vt -0.1332692 0.07824452
vt -0.1401727 0.0700224
vt -0.1237285 0.05621532
vt 0.116825 0.06443743
vt 0.1237285 0.05621532
vt 0.1401727 0.0700224
vt 0.1332692 0.07824451
vt -0.1327376 0.0376003
vt -0.1267001 0.04647784
vt -0.1444552 0.05855283
vt -0.1504927 0.0496753
vt 0.1327376 0.0376003
vt 0.1504927 0.0496753
vt 0.1444552 0.05855284
vt 0.1267001 0.04647784
vt -0.007386971 -0.05006677
vt 0.0009556615 -0.05682417
vt 0.007713062 -0.04848153
vt -0.0006295726 -0.04172413
vt 0.007386973 -0.05006677
vt 0.0006295719 -0.04172413
vt -0.007713061 -0.04848153
vt -0.0009556621 -0.05682417
o group153046411
g mesh153046411
usemtl mat12
f 4/4/1 3/3/1 2/2/1 1/1/1
f 8/8/2 7/7/2 6/6/2 5/5/2
f 2/12/3 8/11/3 5/10/3 1/9/3
f 6/16/4 7/15/4 3/14/4 4/13/4
f 5/20/5 6/19/5 4/18/5 1/17/5
f 3/24/6 7/23/6 8/22/6 2/21/6
o group285926764
g mesh285926764
usemtl mat12
f 12/28/7 11/27/7 10/26/7 9/25/7
f 16/32/8 15/31/8 14/30/8 13/29/8
f 10/36/9 16/35/9 13/34/9 9/33/9
f 14/40/10 15/39/10 11/38/10 12/37/10
f 13/44/11 14/43/11 12/42/11 9/41/11
f 11/48/12 15/47/12 16/46/12 10/45/12
o group13970912
g mesh13970912
usemtl mat12
f 20/52/13 19/51/13 18/50/13 17/49/13
f 24/56/14 23/55/14 22/54/14 21/53/14
f 18/60/15 24/59/15 21/58/15 17/57/15
f 22/64/16 23/63/16 19/62/16 20/61/16
f 21/68/17 22/67/17 20/66/17 17/65/17
f 19/72/18 23/71/18 24/70/18 18/69/18
o group1517577421
g mesh1517577421
usemtl mat12
f 28/76/19 27/75/19 26/74/19 25/73/19
f 32/80/20 31/79/20 30/78/20 29/77/20
f 26/84/21 32/83/21 29/82/21 25/81/21
f 30/88/22 31/87/22 27/86/22 28/85/22
f 29/92/23 30/91/23 28/90/23 25/89/23
f 27/96/24 31/95/24 32/94/24 26/93/24
o group946311031
g mesh946311031
usemtl mat21
f 36/100/25 35/99/25 34/98/25 33/97/25
f 40/104/26 39/103/26 38/102/26 37/101/26
f 34/108/27 40/107/27 37/106/27 33/105/27
f 38/112/28 39/111/28 35/110/28 36/109/28
f 37/116/29 38/115/29 36/114/29 33/113/29
f 35/120/30 39/119/30 40/118/30 34/117/30
o group1744086905
g mesh1744086905
usemtl mat12
f 44/124/31 43/123/31 42/122/31 41/121/31
f 48/128/32 47/127/32 46/126/32 45/125/32
f 42/132/33 48/131/33 45/130/33 41/129/33
f 46/136/34 47/135/34 43/134/34 44/133/34
f 45/140/35 46/139/35 44/138/35 41/137/35
f 43/144/36 47/143/36 48/142/36 42/141/36
o group1791177665
g mesh1791177665
usemtl mat12
f 52/148/37 51/147/37 50/146/37 49/145/37
f 56/152/38 55/151/38 54/150/38 53/149/38
f 50/156/39 56/155/39 53/154/39 49/153/39
f 54/160/40 55/159/40 51/158/40 52/157/40
f 53/164/41 54/163/41 52/162/41 49/161/41
f 51/168/42 55/167/42 56/166/42 50/165/42
o group1334851216
g mesh1334851216
usemtl mat12
f 60/172/43 59/171/43 58/170/43 57/169/43
f 64/176/44 63/175/44 62/174/44 61/173/44
f 58/180/45 64/179/45 61/178/45 57/177/45
f 62/184/46 63/183/46 59/182/46 60/181/46
f 61/188/47 62/187/47 60/186/47 57/185/47
f 59/192/48 63/191/48 64/190/48 58/189/48
o group1266504529
g mesh1266504529
usemtl mat12
f 68/196/49 67/195/49 66/194/49 65/193/49
f 72/200/50 71/199/50 70/198/50 69/197/50
f 66/204/51 72/203/51 69/202/51 65/201/51
f 70/208/52 71/207/52 67/206/52 68/205/52
f 69/212/53 70/211/53 68/210/53 65/209/53
f 67/216/54 71/215/54 72/214/54 66/213/54
