mtllib materials.mtl
v 0.01750001 0.02625012 0.003749996
v 0.01750001 0.07625008 0.003749996
v -0.03249999 0.07625008 0.003749996
v -0.03249999 0.02625012 0.003749996
v 0.01750001 0.02625012 0.05375001
v -0.03249999 0.02625012 0.05375001
v -0.03249999 0.07625008 0.05375001
v 0.01750001 0.07625008 0.05375001
v -0.1125 -0.0537498 0.04375002
v -0.1125 -0.003749847 0.04375002
v -0.1125 -0.003749847 -0.006249994
v -0.1125 -0.0537498 -0.006249964
v -0.1625 -0.0537498 0.04375002
v -0.1625 -0.0537498 -0.006249994
v -0.1625 -0.003749847 -0.006249994
v -0.1625 -0.003749847 0.04374999
v -0.1225 -0.03374994 -0.04624999
v 0.1475 -0.03374994 -0.04625002
v 0.1475 0.04624999 -0.04625002
v -0.1225 0.04624999 -0.04624999
v -0.1225 -0.03374994 0.03375003
v -0.1225 0.04624999 0.03375003
v 0.1475 0.04624999 0.03375
v 0.1475 -0.03374994 0.03375
v 0.1575 -0.05374992 -0.06625
v 0.1575 -0.003749967 -0.06625
v 0.1075 -0.003749967 -0.06625
v 0.1075 -0.05374992 -0.06625
v 0.1575 -0.05374992 -0.01624998
v 0.1075 -0.05374992 -0.01624998
v 0.1075 -0.003749967 -0.01624998
v 0.1575 -0.003749967 -0.01624998
vn 1.173466E-07 -1.110222E-16 -1
vn -1.173466E-07 1.110222E-16 1
vn 1 6.146729E-08 1.788139E-07
vn -1 -6.146729E-08 -1.788139E-07
vn -2.220444E-16 -1 6.146729E-08
vn 2.220444E-16 1 -6.146729E-08
vn 1 -2.220445E-16 3.478285E-07
vn -1 2.220445E-16 -3.478285E-07
vn -3.496911E-07 1.210719E-07 1
vn 3.496911E-07 -1.210719E-07 -1
vn -1.862643E-09 -1 1.192093E-07
vn 1.862643E-09 1 -1.192093E-07
vn -1.192093E-07 1.634988E-08 -1
vn 1.192093E-07 -1.634988E-08 1
vn -1.719654E-07 -1 -3.433468E-16
vn 1.719654E-07 1 3.433468E-16
vn -1 1.748456E-07 1.743902E-07
vn 1 -1.748456E-07 -1.743902E-07
vn -1.862643E-09 0 -1
vn 1.862643E-09 0 1
vn 1 1.862643E-09 0
vn -1 -1.862643E-09 0
vn 0 -1 1.862643E-09
vn 0 1 -1.862643E-09
vt -0.1296919 0.05366563
vt -0.1341641 0.0559017
vt -0.1364001 0.05142956
vt -0.131928 0.04919349
vt 0.1296919 0.05366563
vt 0.131928 0.04919349
vt 0.1364001 0.05142956
vt 0.1341641 0.0559017
vt 0.05696138 0.1313598
vt 0.06103005 0.1284536
vt 0.06393624 0.1325223
vt 0.05986757 0.1354285
vt -0.05696139 0.1313598
vt -0.05986757 0.1354285
vt -0.06393624 0.1325223
vt -0.06103005 0.1284536
vt -0.03161561 0.0006726698
vt -0.0332973 -0.00403604
vt -0.02858859 -0.005717722
vt -0.0269069 -0.001009012
vt 0.03161561 0.0006726697
vt 0.0269069 -0.001009012
vt 0.02858858 -0.005717722
vt 0.0332973 -0.00403604
vt 0.05556645 0.122525
vt 0.05847263 0.1265936
vt 0.05440397 0.1294998
vt 0.05149778 0.1254312
vt -0.05556645 0.122525
vt -0.05149778 0.1254312
vt -0.05440397 0.1294998
vt -0.05847263 0.1265936
vt 0.1283503 0.03846038
vt 0.1305864 0.03398824
vt 0.1350585 0.03622431
vt 0.1328224 0.04069644
vt -0.1283503 0.03846038
vt -0.1328224 0.04069644
vt -0.1350585 0.03622431
vt -0.1305864 0.03398824
vt -0.03222101 -0.01291533
vt -0.03692972 -0.01123364
vt -0.0386114 -0.01594235
vt -0.03390269 -0.01762404
vt 0.03222101 -0.01291533
vt 0.0339027 -0.01762403
vt 0.0386114 -0.01594235
vt 0.03692972 -0.01123364
vt -0.1305864 0.03846037
vt -0.1185116 0.0626099
vt -0.125667 0.06618761
vt -0.1377418 0.04203807
vt 0.1305864 0.03846037
vt 0.1377418 0.04203808
vt 0.125667 0.06618761
vt 0.1185116 0.0626099
vt -0.04103305 -0.01083005
vt -0.03349911 -0.01352075
vt -0.02441803 0.01190629
vt -0.03195197 0.01459698
vt 0.04103305 -0.01083005
vt 0.03195197 0.01459698
vt 0.02441803 0.01190629
vt 0.03349911 -0.01352074
vt -0.04940519 0.1293836
vt -0.05405509 0.1358935
vt -0.06056496 0.1312436
vt -0.05591507 0.1247337
vt 0.04940519 0.1293836
vt 0.05591507 0.1247337
vt 0.06056497 0.1312436
vt 0.05405509 0.1358935
vt -0.1162755 0.0626099
vt -0.1207477 0.06484596
vt -0.1229837 0.06037383
vt -0.1185116 0.05813777
vt 0.1162755 0.0626099
vt 0.1185116 0.05813777
vt 0.1229837 0.06037383
vt 0.1207477 0.06484596
vt 0.04661531 0.1289186
vt 0.05068398 0.1260124
vt 0.05359017 0.1300811
vt 0.0495215 0.1329873
vt -0.04661531 0.1289186
vt -0.0495215 0.1329873
vt -0.05359017 0.1300811
vt -0.05068398 0.1260124
vt -0.03349911 0.01621141
vt -0.03518079 0.0115027
vt -0.03047208 0.009821023
vt -0.0287904 0.01452973
vt 0.03349911 0.01621141
vt 0.0287904 0.01452973
vt 0.03047208 0.009821023
vt 0.03518079 0.0115027
o group1607398784
g mesh1607398784
usemtl mat12
f 4/4/1 3/3/1 2/2/1 1/1/1
f 8/8/2 7/7/2 6/6/2 5/5/2
f 2/12/3 8/11/3 5/10/3 1/9/3
f 6/16/4 7/15/4 3/14/4 4/13/4
f 5/20/5 6/19/5 4/18/5 1/17/5
f 3/24/6 7/23/6 8/22/6 2/21/6
o group133182018
g mesh133182018
usemtl mat12
f 12/28/7 11/27/7 10/26/7 9/25/7
f 16/32/8 15/31/8 14/30/8 13/29/8
f 10/36/9 16/35/9 13/34/9 9/33/9
f 14/40/10 15/39/10 11/38/10 12/37/10
f 13/44/11 14/43/11 12/42/11 9/41/11
f 11/48/12 15/47/12 16/46/12 10/45/12
o group250301956
g mesh250301956
usemtl mat22
f 20/52/13 19/51/13 18/50/13 17/49/13
f 24/56/14 23/55/14 22/54/14 21/53/14
f 18/60/15 24/59/15 21/58/15 17/57/15
f 22/64/16 23/63/16 19/62/16 20/61/16
f 21/68/17 22/67/17 20/66/17 17/65/17
f 19/72/18 23/71/18 24/70/18 18/69/18
o group1985285721
g mesh1985285721
usemtl mat12
f 28/76/19 27/75/19 26/74/19 25/73/19
f 32/80/20 31/79/20 30/78/20 29/77/20
f 26/84/21 32/83/21 29/82/21 25/81/21
f 30/88/22 31/87/22 27/86/22 28/85/22
f 29/92/23 30/91/23 28/90/23 25/89/23
f 27/96/24 31/95/24 32/94/24 26/93/24
