mtllib materials.mtl
v 0.03587604 0.04913652 0.02597025
v -0.08082694 -0.1165142 0.1268122
v 0.04171079 0.2746847 -0.07121655
v 0.1060184 -0.003093123 -0.007876043
v 0.1343992 0.04412222 -0.07158996
v 0.2126232 -0.1197107 -0.2212455
v 0.0640455 -0.2937379 -0.03295472
v 0.04910082 0.02522993 -0.04962297
v 0.1278368 0.1230925 -0.1764106
v 0.1252186 0.1528492 -0.1791829
v 0.1015163 0.1490865 -0.1971842
v 0.1041346 0.1193298 -0.1944119
v 0.1096338 0.1237118 -0.1525723
v 0.0859316 0.1199491 -0.1705736
v -0.06895787 0.1200788 0.030547
v -0.05147254 0.1232554 0.0547167
v 0.1070156 0.1534685 -0.1553446
v 0.08331335 0.1497058 -0.1733459
v -0.07029897 0.1499033 0.02759742
v -0.05281371 0.1530799 0.0517671
v -0.04577076 0.1147805 0.05031494
v -0.03026888 0.1355817 0.03524838
v 0.01158994 0.0698607 -0.006236278
v -0.004767776 0.05109632 0.01050653
v -0.06151029 0.1363807 0.06394219
v -0.08180705 0.1355176 0.0418674
v -0.06630516 0.1563188 0.02680084
v -0.04600841 0.1571819 0.04887563
v -0.06606752 0.1139175 0.02824014
v -0.05056563 0.1347187 0.01317358
v -0.01108468 0.07222784 -0.02573649
v -0.0274424 0.05346346 -0.008993689
v -0.03231403 0.1399357 0.0285833
v -0.04886761 0.1614162 0.04141173
v -0.01259875 0.2187557 -0.01506074
v 0.003256619 0.1956435 -0.02575821
v -0.04507789 0.1194556 0.0464059
v -0.06659678 0.1150793 0.02596608
v -0.08315036 0.1365597 0.03879451
v -0.06163147 0.140936 0.05923433
v -0.05383292 0.1355594 0.008143479
v -0.0703865 0.1570399 0.02097191
v -0.03570834 0.210995 -0.03254554
v -0.019853 0.1878829 -0.04324302
v -0.09098539 0.006270647 0.1032092
v -0.1080913 0.02833021 0.1141986
v -0.06581965 0.08383024 0.06011308
v -0.04962912 0.06019413 0.05121357
v -0.1056923 -0.01360035 0.1202048
v -0.1254684 -0.01790392 0.09806016
v -0.1425743 0.004155636 0.1090495
v -0.1227982 0.00845921 0.1311941
v -0.1107615 0.001967072 0.0810646
v -0.1278674 0.02402663 0.09205391
v -0.08751044 0.07623219 0.04083149
v -0.07131994 0.05259609 0.03193199
v 0.08576755 -0.01776004 -0.08688395
v 0.08406913 0.01198816 -0.09037097
v 0.06192262 0.008389473 -0.1102853
v 0.06362104 -0.02135873 -0.1067983
v 0.06560205 -0.01631331 -0.06471957
v 0.04345554 -0.019912 -0.08463392
v -0.1281011 -0.01277125 0.1023356
v -0.1126901 -0.009512424 0.1278677
v 0.06390363 0.01343489 -0.06820661
v 0.04175711 0.009836197 -0.08812095
v -0.1285106 0.01701462 0.09878108
v -0.1130997 0.02027345 0.1243131
v -0.1068238 -0.01818597 0.1241174
v -0.08961928 0.001999736 0.1100981
v -0.04584372 -0.06534994 0.07349047
v -0.06399879 -0.08345032 0.08907141
v -0.1231848 0.003990889 0.1359707
v -0.1415239 0.003142953 0.1122439
v -0.1243194 0.02332866 0.09822465
v -0.1059803 0.02417672 0.1219514
v -0.1251629 -0.01903403 0.1003906
v -0.1079583 0.0011518 0.08637135
v -0.06669962 -0.06287086 0.05206885
v -0.08485466 -0.08097136 0.06764977
v -0.03144005 -0.1685343 0.07112838
v -0.01339877 -0.1484376 0.05806565
v 0.02238604 -0.2149235 0.01233325
v 0.00366357 -0.2330375 0.02721125
v -0.04517108 -0.1464678 0.08611278
v -0.06481725 -0.1434354 0.0636443
v -0.04677597 -0.1233387 0.05058156
v -0.0271298 -0.1263711 0.07305005
v -0.05108622 -0.1655018 0.0486599
v -0.03304493 -0.1454052 0.03559716
v 0.0006474853 -0.2086297 -0.007359963
v -0.01807499 -0.2267436 0.007518031
v -0.0147818 -0.1433896 0.05172774
v -0.02931228 -0.1212925 0.06589049
v 0.01441488 -0.0640502 0.01486453
v 0.02801812 -0.08785248 0.002682559
v -0.03014487 -0.1636757 0.06761658
v -0.05142495 -0.1641186 0.04647512
v -0.06595543 -0.1420215 0.06063787
v -0.04467532 -0.1415786 0.08177933
v -0.03606191 -0.1438326 0.03058628
v -0.05059236 -0.1217355 0.04474903
v -0.00888887 -0.06790233 -0.003631312
v 0.00471437 -0.09170461 -0.01581329
v 0.1483603 -0.1616814 -0.1507681
v 0.1489979 -0.1316916 -0.151224
v 0.1255445 -0.1314774 -0.1699294
v 0.1249068 -0.1614671 -0.1694735
v 0.1296645 -0.1609273 -0.1273181
v 0.1062111 -0.1607131 -0.1460235
v -0.05336899 -0.1592592 0.05139062
v -0.03633016 -0.1598552 0.07607512
v 0.1303022 -0.1309376 -0.1277741
v 0.1068488 -0.1307232 -0.1464795
v -0.05144972 -0.1293267 0.0507885
v -0.03441089 -0.1299227 0.07547298
vn 0.2345622 0.3795546 0.8949408
vn 0.9020575 0.0379604 0.4299434
vn 0.5173252 0.1485966 0.8427894
vn 0.9251524 0.3717965 0.07655357
vn 0.7642964 0.3063358 0.5674589
vn -0.7639859 -0.04421483 -0.6437164
vn -0.7720693 -0.07747623 -0.6307984
vn -0.7541193 -0.07877935 -0.6519954
vn -0.761157 -0.09995258 -0.6408195
vn 0.842926 -0.1658924 0.511816
vn 0.6385134 -0.1572163 0.7533815
vn 0.5891687 0.3068421 0.7474813
vn 0.6067666 -0.02064181 -0.794612
vn 0.09380264 -0.9929997 0.07178268
vn 0.7900742 0.1254215 0.6000436
vn -0.7900742 -0.1254215 -0.6000436
vn 0.08727541 -0.9918888 0.09241017
vn -0.08727541 0.9918888 -0.09241017
vn -0.7885503 -0.1104993 -0.6049613
vn -0.09391387 0.9929971 -0.07167364
vn 0.7856573 0.1106649 0.6086838
vn -0.8113537 0.02128883 0.5841678
vn 0.7038015 0.004397436 0.7103831
vn -0.5246508 0.720004 0.454242
vn 0.6765587 0.02876905 0.7358266
vn -0.6765587 -0.02876905 -0.7358266
vn -0.51673 -0.6933734 0.5022187
vn 0.51673 0.6933734 -0.5022187
vn 0.5307989 0.6656615 -0.524545
vn -0.7028273 -0.005947606 -0.7113357
vn -0.5306783 -0.6658615 0.524413
vn 0.3625302 -0.7762404 -0.515774
vn 0.729555 0.1824865 0.659127
vn -0.4254621 -0.6826734 0.5940867
vn 0.7172961 0.1458753 0.6813273
vn -0.7172961 -0.1458753 -0.6813273
vn 0.5517865 -0.7160152 -0.4276143
vn -0.5517865 0.7160152 0.4276143
vn -0.5409663 0.7399502 0.3997865
vn -0.7286891 -0.1811595 -0.6604494
vn 0.5410703 -0.7397782 -0.3999641
vn 0.3567681 0.5827139 -0.7301788
vn 0.6741471 0.1793759 0.7164844
vn -0.4902302 -0.6623675 0.566519
vn 0.6592032 0.1434515 0.7381551
vn -0.6592032 -0.1434515 -0.7381551
vn 0.5701979 -0.7353171 -0.3663104
vn -0.5701979 0.7353171 0.3663104
vn -0.5564892 0.7584957 0.3391226
vn -0.6731412 -0.1780924 -0.7177494
vn 0.556612 -0.7583292 -0.3392934
vn 0.4312474 0.5613518 -0.7063356
vn 0.6721835 -0.04822519 -0.7388124
vn 0.06486288 -0.9932397 0.09626897
vn 0.7382169 0.119958 0.6638116
vn -0.7382169 -0.119958 -0.6638116
vn 0.05661397 -0.991607 0.1162345
vn -0.05661397 0.991607 -0.1162345
vn -0.73594 -0.1051656 -0.6688293
vn -0.06498309 0.9932415 -0.09616991
vn 0.7327421 0.1054615 0.6722848
vn -0.8578632 0.04924604 0.5115131
vn 0.6400737 0.002855483 0.7683083
vn -0.5453676 0.7392308 0.3951102
vn 0.6113021 0.02826526 0.7908925
vn -0.6113021 -0.02826526 -0.7908925
vn -0.5734842 -0.6728588 0.4673082
vn 0.5734842 0.6728588 -0.4673082
vn 0.5887909 0.6444452 -0.4878685
vn -0.6390565 -0.004443305 -0.769147
vn -0.5886639 -0.6446502 0.4877508
vn 0.3879069 -0.7931843 -0.4694538
vn 0.6800735 -0.1262324 0.7221949
vn -0.4577006 0.7355474 0.49948
vn 0.6548719 -0.1010812 0.7489495
vn -0.6548719 0.1010812 -0.7489495
vn -0.6013759 -0.66989 0.4354244
vn 0.6013759 0.66989 -0.4354244
vn 0.613041 0.6426135 -0.4595962
vn -0.6792432 0.1246636 -0.723248
vn -0.6129388 -0.6428148 0.4594511
vn 0.2923122 -0.7690365 -0.568451
vn 0.7260348 0.05143063 0.6857321
vn -0.5121015 -0.6762 0.5296279
vn 0.7093366 0.01476572 0.7047154
vn -0.7093366 -0.01476572 -0.7047154
vn 0.4843488 -0.7365702 -0.4720917
vn -0.4843488 0.7365702 0.4720917
vn -0.4702698 0.7612581 0.4464667
vn -0.7249961 -0.05010753 -0.6869279
vn 0.4703965 -0.7610852 -0.446628
vn 0.4370191 0.5949888 -0.6745389
vn 0.6231911 -0.02513456 -0.7816657
vn -0.0143076 -0.9998835 -0.005320508
vn 0.7817807 -0.00714384 0.6235126
vn -0.7817807 0.00714384 -0.6235126
vn -0.02125598 -0.9996585 0.01519782
vn 0.02125598 0.9996585 -0.01519782
vn -0.7785423 0.02214665 -0.6272013
vn 0.01419371 0.9998845 0.005426783
vn 0.7755799 -0.02195516 0.6308675
vn -0.8205654 0.06403965 0.5679538
vt 0.1394828 0.03497043
vt 0.1291722 0.01482147
vt 0.1602554 0.04808566
vt 0.1293749 0.06974147
vt 0.1296797 0.07815867
vt 0.1068286 0.08376192
vt 0.1486215 0.03798771
vt 0.1406477 0.0429225
vt 0.1394984 0.01727404
vt 0.1661078 0.04303156
vt 0.1209858 0.04908814
vt 0.1417629 0.03804823
vt 0.1678946 0.04389277
vt 0.1431624 0.04148016
vt 0.1406173 0.03345118
vt -0.1369597 0.03029232
vt -0.1112887 0.04125664
vt -0.1157143 0.07055777
vt -0.1376292 0.02891527
vt -0.1405275 0.05485019
vt -0.1623531 0.06714357
vt -0.163 0.06565306
vt -0.1410818 0.0535256
vt -0.1175504 0.06830032
vt -0.1181731 0.06760804
vt -0.1415939 0.05265861
vt -0.1382983 0.02677117
vt 0.09699995 0.08652155
vt 0.09683879 0.05688852
vt 0.1205901 0.07433914
vt 0.1321981 0.05500323
vt 0.1072448 0.03931939
vt 0.1333196 0.02935354
vt 0.1396542 0.03390531
vt 0.1474378 0.02867552
vt 0.1674214 0.04296431
vt -0.1344127 0.08781321
vt -0.1368799 0.08951992
vt -0.1385866 0.08705269
vt -0.1361194 0.08534599
vt -0.00362153 -0.00427315
vt -0.006062261 -0.006017385
vt 0.008560419 -0.02676779
vt 0.01140117 -0.02580359
vt 0.1441894 0.0705122
vt 0.1455349 0.06783082
vt 0.1482163 0.06917624
vt 0.1468708 0.07185762
vt -0.1441894 0.07051219
vt -0.1468708 0.07185762
vt -0.1482163 0.06917624
vt -0.1455349 0.06783082
vt -0.002475648 -0.003824299
vt -0.00490407 -0.005585768
vt -0.003142601 -0.008014189
vt -0.0007141792 -0.00625272
vt 0.002475647 -0.003824299
vt 0.0007141791 -0.00625272
vt 0.0031426 -0.008014188
vt 0.004904069 -0.005585768
vt -0.1449371 0.06880414
vt -0.1476082 0.07016896
vt -0.1586724 0.04742404
vt -0.1560443 0.04597807
vt 0.006127541 -0.00595765
vt 0.003686764 -0.004213481
vt -0.01135637 -0.02561702
vt -0.0085156 -0.02658113
vt 0.1477547 0.06996837
vt 0.1450815 0.06860746
vt 0.1564946 0.04496467
vt 0.1591247 0.04640716
vt 0.09114997 0.1299397
vt 0.09359153 0.1281965
vt 0.09533475 0.130638
vt 0.09289319 0.1323812
vt 0.1540688 0.04597562
vt 0.1549219 0.04885162
vt 0.1463759 0.05106292
vt 0.1457857 0.04812171
vt 0.04697174 0.07550711
vt 0.04974693 0.07436766
vt 0.05088637 0.07714285
vt 0.04811119 0.0782823
vt 0.1554325 0.0431736
vt 0.1582952 0.04227626
vt 0.1591925 0.04513891
vt 0.1563299 0.04603625
vt -0.1554325 0.0431736
vt -0.1563299 0.04603625
vt -0.1591925 0.04513891
vt -0.1582952 0.04227626
vt 0.09865735 -0.0939083
vt 0.09683686 -0.0962928
vt 0.09922136 -0.09811329
vt 0.1010419 -0.0957288
vt -0.09865735 -0.0939083
vt -0.1010419 -0.0957288
vt -0.09922136 -0.09811329
vt -0.09683686 -0.0962928
vt -0.1080423 -0.08812144
vt -0.1063913 -0.09062615
vt -0.09921908 -0.08634396
vt -0.1004546 -0.0836103
vt -0.1548916 0.04877658
vt -0.1540362 0.04590128
vt -0.1462024 0.04789153
vt -0.1467952 0.05083223
vt 0.1062225 -0.09062306
vt 0.1078747 -0.08811913
vt 0.1005521 -0.08369248
vt 0.09931525 -0.08642555
vt -0.06272214 0.05492937
vt -0.0639713 0.05765693
vt -0.06669886 0.05640778
vt -0.0654497 0.05368022
vt 0.1591265 0.03939616
vt 0.1619407 0.03835713
vt 0.1647052 0.04674048
vt 0.1618088 0.04752148
vt 0.1155634 -0.07114413
vt 0.1139578 -0.07367832
vt 0.116492 -0.0752839
vt 0.1180976 -0.0727497
vt 0.1586946 0.04167379
vt 0.1576937 0.0388457
vt 0.1605217 0.03784473
vt 0.1615227 0.04067281
vt -0.1586946 0.04167378
vt -0.1615227 0.04067281
vt -0.1605217 0.03784473
vt -0.1576937 0.0388457
vt -0.04345504 0.0813762
vt -0.04607406 0.07991309
vt -0.04461095 0.07729407
vt -0.04199192 0.07875718
vt 0.04345504 0.0813762
vt 0.04199192 0.07875718
vt 0.04461094 0.07729407
vt 0.04607406 0.07991309
vt 0.03937827 0.07759963
vt 0.04200762 0.07615533
vt 0.0463513 0.08329047
vt 0.04398249 0.08513119
vt -0.1620024 0.03853517
vt -0.1591879 0.03957313
vt -0.1616761 0.04726319
vt -0.1645728 0.04648317
vt -0.04210562 0.0762722
vt -0.03947632 0.07771659
vt -0.04388931 0.08504744
vt -0.04625805 0.08320662
vt -0.1406678 -0.03508369
vt -0.1434614 -0.03617713
vt -0.142368 -0.03897076
vt -0.1395743 -0.03787732
vt 0.1508391 0.02370289
vt 0.1536814 0.02274336
vt 0.1562092 0.03120108
vt 0.153292 0.03190037
vt 0.1121659 -0.07592152
vt 0.1104236 -0.07836376
vt 0.1128659 -0.08010601
vt 0.1146081 -0.07766376
vt 0.1507074 0.02550643
vt 0.1497785 0.02265386
vt 0.1526311 0.02172497
vt 0.15356 0.02457755
vt -0.1507074 0.02550643
vt -0.15356 0.02457754
vt -0.1526311 0.02172497
vt -0.1497785 0.02265386
vt -0.02641502 0.06589787
vt -0.02914414 0.06465212
vt -0.0278984 0.06192299
vt -0.02516927 0.06316874
vt 0.02641502 0.06589787
vt 0.02516927 0.06316875
vt 0.0278984 0.061923
vt 0.02914414 0.06465212
vt 0.02287374 0.06172665
vt 0.02561038 0.06049771
vt 0.02936829 0.06795801
vt 0.02685959 0.06960297
vt -0.1537477 0.02290859
vt -0.1509052 0.02386728
vt -0.153177 0.03162404
vt -0.1560944 0.03092548
vt -0.02569735 0.06062239
vt -0.02296076 0.06185141
vt -0.02677203 0.06951235
vt -0.02928067 0.0678673
vt -0.1374707 -0.03767668
vt -0.1402505 -0.03880494
vt -0.1391222 -0.04158469
vt -0.1363425 -0.04045644
vt -0.1131301 0.09159431
vt -0.1154084 0.09354608
vt -0.1173602 0.09126779
vt -0.1150819 0.08931603
vt 0.004379868 -0.0171171
vt 0.001813353 -0.01867033
vt 0.01481275 -0.04047441
vt 0.0177187 -0.03972942
vt 0.1365883 0.05291677
vt 0.1379873 0.0502629
vt 0.1406411 0.05166182
vt 0.1392422 0.05431569
vt -0.1365883 0.05291677
vt -0.1392422 0.05431569
vt -0.1406411 0.05166182
vt -0.1379873 0.0502629
vt 0.005403897 -0.01649516
vt 0.002848837 -0.01806731
vt 0.004420988 -0.02062237
vt 0.006976049 -0.01905021
vt -0.005403897 -0.01649516
vt -0.006976048 -0.01905021
vt -0.004420989 -0.02062237
vt -0.002848836 -0.01806731
vt -0.1375907 0.0510047
vt -0.1402358 0.05241935
vt -0.1517246 0.0298859
vt -0.149124 0.02839091
vt -0.001753361 -0.01860814
vt -0.004319915 -0.01705497
vt -0.01768884 -0.03954228
vt -0.01478287 -0.04028719
vt 0.1403466 0.05225819
vt 0.1376997 0.05084692
vt 0.1495584 0.02742449
vt 0.1521607 0.02891653
vt 0.05880952 0.1308004
vt 0.06148971 0.1294526
vt 0.06283752 0.1321328
vt 0.06015732 0.1334806
vt 0.1477091 0.02798798
vt 0.1485209 0.0308759
vt 0.1399442 0.03296457
vt 0.1393961 0.03001521
vt 0.03019718 0.06044308
vt 0.03305569 0.05953262
vt 0.03396615 0.06239112
vt 0.03110764 0.06330159
vt 0.14855 0.02587453
vt 0.151428 0.02502764
vt 0.1522749 0.02790563
vt 0.1493969 0.02875251
vt -0.14855 0.02587452
vt -0.1493969 0.02875251
vt -0.1522748 0.02790563
vt -0.151428 0.02502765
vt 0.09223174 -0.09940924
vt 0.09019595 -0.1016128
vt 0.09239949 -0.1036486
vt 0.09443528 -0.101445
vt -0.09223174 -0.09940924
vt -0.09443529 -0.101445
vt -0.09239949 -0.1036486
vt -0.09019596 -0.1016128
vt -0.1021219 -0.09293786
vt -0.1002675 -0.09529601
vt -0.0934778 -0.09043004
vt -0.09493724 -0.08780906
vt -0.1484612 0.03083306
vt -0.1476475 0.02794566
vt -0.1397857 0.02982213
vt -0.1403358 0.03277111
vt 0.1000994 -0.09528977
vt 0.1019551 -0.09293264
vt 0.09502788 -0.08790968
vt 0.09356703 -0.09052985
vt -0.04711818 0.04148424
vt -0.04814716 0.04430225
vt -0.05096518 0.04327327
vt -0.04993619 0.04045526
vt 0.1251921 0.03523504
vt 0.1258725 0.03815672
vt 0.1172101 0.03985545
vt 0.116796 0.03688432
vt 0.04614741 0.0510393
vt 0.04901408 0.05015488
vt 0.0498985 0.05302155
vt 0.04703183 0.05390598
vt 0.1268615 0.03305569
vt 0.1297748 0.03233976
vt 0.1304908 0.03525307
vt 0.1275774 0.03596901
vt -0.1268615 0.03305569
vt -0.1275774 0.03596901
vt -0.1304908 0.03525307
vt -0.1297748 0.03233976
vt 0.07209302 -0.0945637
vt 0.0702239 -0.09691027
vt 0.07257047 -0.0987794
vt 0.07443959 -0.09643283
vt -0.07209302 -0.0945637
vt -0.07443959 -0.09643282
vt -0.07257047 -0.0987794
vt -0.0702239 -0.09691027
vt -0.08259845 -0.08855505
vt -0.08094956 -0.09106117
vt -0.0737737 -0.08678509
vt -0.07500693 -0.08405039
vt -0.1258509 0.03811967
vt -0.1251687 0.03519843
vt -0.1172301 0.03671742
vt -0.1176462 0.03968827
vt 0.08077237 -0.09106163
vt 0.08242283 -0.08855654
vt 0.07509713 -0.084135
vt 0.07386221 -0.08686894
vt -0.0602488 0.03508013
vt -0.06123802 0.03791236
vt -0.06407024 0.03692315
vt -0.06308103 0.03409093
vt 0.1309968 0.0351562
vt 0.1338821 0.03433517
vt 0.1359982 0.0429052
vt 0.1330506 0.04346266
vt 0.09055966 -0.07471491
vt 0.08899339 -0.07727358
vt 0.09155206 -0.07883985
vt 0.09311833 -0.07628118
vt 0.1303479 0.03585846
vt 0.1295554 0.03296502
vt 0.1324488 0.03217254
vt 0.1332413 0.03506598
vt -0.1303479 0.03585846
vt -0.1332413 0.03506598
vt -0.1324488 0.03217254
vt -0.1295554 0.03296502
vt -0.04319686 0.05628341
vt -0.04593526 0.05505817
vt -0.04471003 0.05231977
vt -0.04197163 0.05354501
vt 0.04319686 0.0562834
vt 0.04197163 0.05354501
vt 0.04471003 0.05231977
vt 0.04593526 0.05505817
vt 0.0402288 0.05274741
vt 0.04297327 0.05153607
vt 0.04668321 0.05902034
vt 0.04416399 0.06064916
vt -0.1339314 0.03445183
vt -0.1310459 0.03527214
vt -0.1329405 0.04312956
vt -0.1358882 0.0425727
vt -0.04305639 0.05165647
vt -0.04031195 0.05286788
vt -0.0440739 0.06055316
vt -0.04659307 0.05892428
vt -0.115766 -0.04100727
vt -0.1186191 -0.04193452
vt -0.1176918 -0.04478762
vt -0.1148387 -0.04386037
vt -0.1095864 0.07340655
vt -0.1117638 0.07547025
vt -0.1138275 0.07329283
vt -0.11165 0.07122913
vt -0.01797919 -0.01479956
vt -0.02053699 -0.01636711
vt -0.007415934 -0.03809819
vt -0.004514196 -0.03733698
vt 0.113374 0.06374656
vt 0.1149018 0.06116472
vt 0.1174837 0.06269247
vt 0.1159559 0.06527432
vt -0.113374 0.06374656
vt -0.1159559 0.06527431
vt -0.1174837 0.06269247
vt -0.1149018 0.06116471
vt -0.01722881 -0.01414515
vt -0.01977357 -0.01573393
vt -0.01818479 -0.01827869
vt -0.01564004 -0.01668991
vt 0.01722881 -0.01414515
vt 0.01564004 -0.01668991
vt 0.01818479 -0.01827869
vt 0.01977357 -0.01573393
vt -0.1142763 0.06150992
vt -0.1168492 0.063052
vt -0.1294241 0.04110612
vt -0.1268996 0.03948599
vt 0.02059636 -0.01630687
vt 0.01803852 -0.01473939
vt 0.004544205 -0.03715169
vt 0.007445966 -0.03791281
vt 0.1170223 0.06283938
vt 0.1144473 0.06130082
vt 0.1274331 0.03848397
vt 0.1299596 0.04010102
vt 0.0671197 0.1096418
vt 0.06984162 0.1083804
vt 0.07110304 0.1111023
vt 0.06838112 0.1123637
o group2080940250
g mesh2080940250
usemtl mat5
f 3/3/1 2/2/1 1/1/1
f 6/6/2 5/5/2 4/4/2
f 2/9/3 4/8/3 1/7/3
f 5/12/4 6/11/4 3/10/4
f 4/15/5 5/14/5 3/13/5
f 3/21/7 8/20/7 2/19/7
f 6/24/8 8/23/8 3/22/8
f 2/27/9 8/26/9 6/25/9
f 4/30/10 7/29/10 6/28/10
f 2/33/11 7/32/11 4/31/11
f 3/36/12 1/35/12 4/34/12
usemtl mat3
f 6/18/6 7/17/6 2/16/6
o group62843534
g mesh62843534
usemtl mat23
f 12/40/13 11/39/13 10/38/13 9/37/13
f 16/44/14 15/43/14 14/42/14 13/41/14
f 10/48/15 17/47/15 13/46/15 9/45/15
f 14/52/16 18/51/16 11/50/16 12/49/16
f 13/56/17 14/55/17 12/54/17 9/53/17
f 11/60/18 18/59/18 17/58/18 10/57/18
f 15/64/19 19/63/19 18/62/19 14/61/19
f 19/68/20 20/67/20 17/66/20 18/65/20
f 20/72/21 16/71/21 13/70/21 17/69/21
f 20/76/22 19/75/22 15/74/22 16/73/22
f 24/80/23 23/79/23 22/78/23 21/77/23
f 28/84/24 27/83/24 26/82/24 25/81/24
f 22/88/25 28/87/25 25/86/25 21/85/25
f 26/92/26 27/91/26 30/90/26 29/89/26
f 25/96/27 26/95/27 29/94/27 21/93/27
f 30/100/28 27/99/28 28/98/28 22/97/28
f 23/104/29 31/103/29 30/102/29 22/101/29
f 31/108/30 32/107/30 29/106/30 30/105/30
f 32/112/31 24/111/31 21/110/31 29/109/31
f 32/116/32 31/115/32 23/114/32 24/113/32
f 36/120/33 35/119/33 34/118/33 33/117/33
f 40/124/34 39/123/34 38/122/34 37/121/34
f 34/128/35 40/127/35 37/126/35 33/125/35
f 38/132/36 39/131/36 42/130/36 41/129/36
f 37/136/37 38/135/37 41/134/37 33/133/37
f 42/140/38 39/139/38 40/138/38 34/137/38
f 35/144/39 43/143/39 42/142/39 34/141/39
f 43/148/40 44/147/40 41/146/40 42/145/40
f 44/152/41 36/151/41 33/150/41 41/149/41
f 44/156/42 43/155/42 35/154/42 36/153/42
o group1961976733
g mesh1961976733
usemtl mat23
f 48/160/43 47/159/43 46/158/43 45/157/43
f 52/164/44 51/163/44 50/162/44 49/161/44
f 46/168/45 52/167/45 49/166/45 45/165/45
f 50/172/46 51/171/46 54/170/46 53/169/46
f 49/176/47 50/175/47 53/174/47 45/173/47
f 54/180/48 51/179/48 52/178/48 46/177/48
f 47/184/49 55/183/49 54/182/49 46/181/49
f 55/188/50 56/187/50 53/186/50 54/185/50
f 56/192/51 48/191/51 45/190/51 53/189/51
f 56/196/52 55/195/52 47/194/52 48/193/52
f 60/200/53 59/199/53 58/198/53 57/197/53
f 64/204/54 63/203/54 62/202/54 61/201/54
f 58/208/55 65/207/55 61/206/55 57/205/55
f 62/212/56 66/211/56 59/210/56 60/209/56
f 61/216/57 62/215/57 60/214/57 57/213/57
f 59/220/58 66/219/58 65/218/58 58/217/58
f 63/224/59 67/223/59 66/222/59 62/221/59
f 67/228/60 68/227/60 65/226/60 66/225/60
f 68/232/61 64/231/61 61/230/61 65/229/61
f 68/236/62 67/235/62 63/234/62 64/233/62
f 72/240/63 71/239/63 70/238/63 69/237/63
f 76/244/64 75/243/64 74/242/64 73/241/64
f 70/248/65 76/247/65 73/246/65 69/245/65
f 74/252/66 75/251/66 78/250/66 77/249/66
f 73/256/67 74/255/67 77/254/67 69/253/67
f 78/260/68 75/259/68 76/258/68 70/257/68
f 71/264/69 79/263/69 78/262/69 70/261/69
f 79/268/70 80/267/70 77/266/70 78/265/70
f 80/272/71 72/271/71 69/270/71 77/269/71
f 80/276/72 79/275/72 71/274/72 72/273/72
o group219202682
g mesh219202682
usemtl mat23
f 84/280/73 83/279/73 82/278/73 81/277/73
f 88/284/74 87/283/74 86/282/74 85/281/74
f 82/288/75 88/287/75 85/286/75 81/285/75
f 86/292/76 87/291/76 90/290/76 89/289/76
f 85/296/77 86/295/77 89/294/77 81/293/77
f 90/300/78 87/299/78 88/298/78 82/297/78
f 83/304/79 91/303/79 90/302/79 82/301/79
f 91/308/80 92/307/80 89/306/80 90/305/80
f 92/312/81 84/311/81 81/310/81 89/309/81
f 92/316/82 91/315/82 83/314/82 84/313/82
f 96/320/83 95/319/83 94/318/83 93/317/83
f 100/324/84 99/323/84 98/322/84 97/321/84
f 94/328/85 100/327/85 97/326/85 93/325/85
f 98/332/86 99/331/86 102/330/86 101/329/86
f 97/336/87 98/335/87 101/334/87 93/333/87
f 102/340/88 99/339/88 100/338/88 94/337/88
f 95/344/89 103/343/89 102/342/89 94/341/89
f 103/348/90 104/347/90 101/346/90 102/345/90
f 104/352/91 96/351/91 93/350/91 101/349/91
f 104/356/92 103/355/92 95/354/92 96/353/92
f 108/360/93 107/359/93 106/358/93 105/357/93
f 112/364/94 111/363/94 110/362/94 109/361/94
f 106/368/95 113/367/95 109/366/95 105/365/95
f 110/372/96 114/371/96 107/370/96 108/369/96
f 109/376/97 110/375/97 108/374/97 105/373/97
f 107/380/98 114/379/98 113/378/98 106/377/98
f 111/384/99 115/383/99 114/382/99 110/381/99
f 115/388/100 116/387/100 113/386/100 114/385/100
f 116/392/101 112/391/101 109/390/101 113/389/101
f 116/396/102 115/395/102 111/394/102 112/393/102
