mtllib materials.mtl
v 0.0009188056 0.04978728 -0.004514504
v 0.01587772 -0.04584193 0.05144329
v -0.009915292 -0.04518104 0.05348232
v 0.03717011 -0.04755998 0.03682974
v 0.04825658 -0.0498749 0.01355734
v 0.04616657 -0.05216622 -0.01213808
v 0.03146005 -0.05382013 -0.03337144
v 0.008077651 -0.05439353 -0.04445331
v -0.01771536 -0.05373263 -0.04241428
v -0.03900772 -0.05201459 -0.02780072
v -0.05009422 -0.04969978 -0.004528333
v -0.04800418 -0.04740834 0.02116708
v -0.03329766 -0.04575443 0.04240046
vn 0.08070765 0.5127696 0.8547243
vn 0.5196586 0.4905921 0.6994815
vn 0.821509 0.4529957 0.3462915
vn 0.9053782 0.4100544 -0.1102086
vn 0.7487933 0.3732743 -0.5476997
vn 0.3937112 0.3525105 -0.8489569
vn -0.06472411 0.3533267 -0.9332583
vn -0.5036752 0.3755043 -0.7780154
vn -0.8055254 0.4131006 -0.4248255
vn -0.8893945 0.4560419 0.03167447
vn -0.7328097 0.492822 0.4691657
vn -0.3777274 0.5135859 0.7704229
vn -0.01837635 -0.995746 0.09029008
vt 0.1269784 0.03457157
vt 0.1167453 0.03006783
vt 0.1180551 0.02783551
vt 0.137935 0.0152597
vt 0.1270559 0.01268165
vt 0.1279402 0.01024921
vt 0.1426789 0.01000344
vt 0.1315672 0.00876639
vt 0.1321494 0.006244529
vt 0.1421008 0.0272374
vt 0.1309934 0.02596232
vt 0.1315842 0.02344246
vt -0.1433507 0.01699366
vt -0.1327305 0.01349919
vt -0.1322116 0.01603482
vt -0.1416912 0.007198479
vt -0.131217 0.003288299
vt -0.1305985 0.005801517
vt -0.1356516 0.01586657
vt -0.1257731 0.01063078
vt -0.1248338 0.01304255
vt -0.1225837 0.03880404
vt -0.1138932 0.0317703
vt -0.1125087 0.03395707
vt -0.09356736 0.07513882
vt -0.08733885 0.06585411
vt -0.08537083 0.06753507
vt -0.03310229 0.109885
vt -0.03170851 0.0987919
vt -0.02919511 0.09940962
vt 0.04782587 0.1056402
vt 0.04309773 0.09550881
vt 0.04555402 0.0946931
vt 0.1020923 0.06832074
vt 0.09349982 0.06116752
vt 0.09537484 0.05938343
vt 0.002577262 -0.03722753
vt 0.003149831 -0.03470346
vt 0.002383659 -0.03223127
vt 0.0004840395 -0.03047339
vt -0.002040023 -0.02990082
vt -0.004512209 -0.03066699
vt -0.006270101 -0.03256661
vt -0.00684267 -0.03509067
vt -0.006076497 -0.03756285
vt -0.004176879 -0.03932075
vt -0.001652816 -0.03989332
vt 0.0008193731 -0.03912714
o group909122935
g mesh909122935
usemtl mat13
f 3/3/1 2/2/1 1/1/1
f 2/6/2 4/5/2 1/4/2
f 4/9/3 5/8/3 1/7/3
f 5/12/4 6/11/4 1/10/4
f 6/15/5 7/14/5 1/13/5
f 7/18/6 8/17/6 1/16/6
f 8/21/7 9/20/7 1/19/7
f 9/24/8 10/23/8 1/22/8
f 10/27/9 11/26/9 1/25/9
f 11/30/10 12/29/10 1/28/10
f 12/33/11 13/32/11 1/31/11
f 13/36/12 3/35/12 1/34/12
f 13/48/13 12/47/13 11/46/13 10/45/13 9/44/13 8/43/13 7/42/13 6/41/13 5/40/13 4/39/13 2/38/13 3/37/13
